<?xml version="1.0" encoding="utf-8"?>
<!-- Generator: Adobe Illustrator 17.0.0, SVG Export Plug-In . SVG Version: 6.00 Build 0)  -->
<!DOCTYPE svg PUBLIC "-//W3C//DTD SVG 1.1//EN" "http://www.w3.org/Graphics/SVG/1.1/DTD/svg11.dtd">
<svg version="1.1" id="Capa_1" xmlns="http://www.w3.org/2000/svg" xmlns:xlink="http://www.w3.org/1999/xlink" x="0px" y="0px"
	 width="1200px" height="1200px" viewBox="0 0 1200 1200" enable-background="new 0 0 1200 1200" xml:space="preserve">
<g>
	<g>
		<path fill="#070608" d="M-675.489,47.457c9.54,0,17.5-7.96,17.5-17.5s-7.96-17.5-17.5-17.5c-9.54,0-17.5,7.96-17.5,17.5
			S-685.029,47.457-675.489,47.457L-675.489,47.457z"/>
	</g>
</g>
<linearGradient id="SVGID_1_" gradientUnits="userSpaceOnUse" x1="586.2766" y1="642.8" x2="1202.0039" y2="642.8">
	<stop  offset="0" style="stop-color:#FFFFFF"/>
	<stop  offset="1" style="stop-color:#7B057E"/>
</linearGradient>
<polygon fill="#C12929" stroke="url(#SVGID_1_)" stroke-width="4" stroke-miterlimit="10" points="1199,885.059 588.277,1022.957 
	588.277,391.643 1200,262.607 "/>
<g>
	<g>
		<path fill="#6AAC93" stroke="#070608" stroke-width="2" stroke-miterlimit="10" d="M1141.53,310.373
			c13.859-3.525,23.565,5.177,21.568,19.337c0,0-16.112,114.293-33.513,245.303c-10.167,80.452-20.521,170.743-31.063,270.868
			l-87.138,22.161c-13.859,3.525-24.35-5.261-23.313-19.523l8.142-112.022c1.037-14.262-4.222-15.952-11.686-3.755l-98.595,161.115
			c-7.464,12.197-20.275,12.588-28.468,0.868l-72.372-103.523c-8.193-11.72-16.172-9.679-17.731,4.536l-12.323,112.374
			c-1.559,14.215-14.173,28.729-28.032,32.254l-61.319,15.595c-13.859,3.525-24.473-5.269-23.586-19.542
			c0,0,7.237-116.546,14.683-242.529c3.774-72.448,6.596-159.911,8.466-262.389l152.616-38.814
			c13.859-3.525,28.745,4.741,33.08,18.368c0,0,4.918,15.459,16.557,49.606c9.118,24.095,22.033,52.002,38.745,83.722
			c10.337-18.108,29.668-55.015,57.987-110.715c10.159-20.564,23.454-50.02,39.884-88.35L1141.53,310.373z"/>
	</g>
</g>
<linearGradient id="SVGID_2_" gradientUnits="userSpaceOnUse" x1="4.6202" y1="292.6058" x2="1200" y2="292.6058">
	<stop  offset="0" style="stop-color:#FFFFFF"/>
	<stop  offset="1" style="stop-color:#7B057E"/>
</linearGradient>
<polygon fill="url(#SVGID_2_)" stroke="#822282" stroke-width="4" stroke-miterlimit="10" points="588.091,396.101 4.62,292.606 
	574.592,189.111 1200,262.607 "/>
<polygon fill="#030004" points="592.591,1024.569 0.043,925.653 0.043,292.652 589.5,396.879 "/>
<g>
	<path fill="#E3E039" d="M215,295.333"/>
	<path fill="none" stroke="#070608" stroke-miterlimit="10" d="M215,295.333"/>
</g>
<g>
</g>
<g>
	<g>
		<path fill="#6AAC93" stroke="#FFFFFF" stroke-width="3" stroke-miterlimit="10" d="M362.522,914.277l-163.568-30.161
			c-14.063-2.593-23.165-16.165-20.226-30.16c0,0,21.093-100.45,35.114-176.201c6.811-34.304,13.625-68.734,20.447-103.295
			c7.534-38.55,11.495-65.002,11.877-79.366c0.109-4.099-0.006-7.472-0.341-10.112c1.017-0.066,11.784,0.373,32.304,1.318
			c11.784,0.374,24.292,0.361,37.526-0.038c3.744,42.694,10.419,112.725,20.028,210.095
			C341.612,740.999,350.559,813.642,362.522,914.277z M357.842,380.018c-0.554,20.77-7.639,36.537-21.243,47.297
			c-13.61,10.765-30.332,14.313-50.165,10.655c-18.215-3.359-33.629-12.771-46.23-28.236
			c-13.193-16.348-19.511-34.906-18.958-55.676c0.533-20,7.709-35.617,21.537-46.856c13.824-11.233,29.641-15.213,47.453-11.929
			c19.022,3.507,35.186,13.385,48.482,29.619C352.014,341.13,358.389,359.506,357.842,380.018z"/>
	</g>
</g>
<g>
	<g>
		<path fill="#E3E039" d="M433.674,367.849c-1.97,1.602-30.163,37.079-36.41,40.415c-31.065,18.801-45.81,55.008-169.541,35.686
			c-16.522,2.778-41.016-32.085-50.466-62.749c-11.125-31.514-7.206-58.83-5.592-60.573"/>
		<path fill="none" stroke="#FFFFFF" stroke-width="2" stroke-miterlimit="10" d="M433.674,367.849
			c-1.97,1.602-30.163,37.079-36.41,40.415c-31.065,18.801-45.81,55.008-169.541,35.686c-16.522,2.778-41.016-32.085-50.466-62.749
			c-11.125-31.514-7.206-58.83-5.592-60.573"/>
	</g>
	<path fill="#E3E039" stroke="#070608" stroke-miterlimit="10" d="M431.499,367.195c-6.177-2.371-262.987-46.196-262.987-46.196
		c8.425-37.077,101.648-51.67,107.198-53.429c5.539-1.756,116.368-8.993,148.302,18.529
		C450.199,308.667,440.751,370.747,431.499,367.195z"/>
</g>
</svg>
